HIERARCHY
ROOT Hips
{
  OFFSET 5.84602e-005 68.8428 3.50346
  CHANNELS 6 Xposition Yposition Zposition Zrotation Xrotation Yrotation
  JOINT Spine
  {
    OFFSET 0 8.597 -4.6522
    CHANNELS 3 Zrotation Xrotation Yrotation
    JOINT Spine1
    {
      OFFSET 0 7.8454 0.4098
      CHANNELS 3 Zrotation Xrotation Yrotation
      JOINT Spine2
      {
        OFFSET 0 9.7078 -2.1609
        CHANNELS 3 Zrotation Xrotation Yrotation
        JOINT Neck
        {
          OFFSET 0 21.8761 -0.4549
          CHANNELS 3 Zrotation Xrotation Yrotation
          JOINT Head
          {
            OFFSET 0 12.3537 3.3602
            CHANNELS 3 Zrotation Xrotation Yrotation
            End Site
            {
              OFFSET 0.0001 18.9506 0.5657
            }
          }
        }
        JOINT LeftShoulder
        {
          OFFSET 2.2086 21.1115 7.2329
          CHANNELS 3 Zrotation Xrotation Yrotation
          JOINT LeftArm
          {
            OFFSET 13.1193 3.0282 -4.8998
            CHANNELS 3 Zrotation Xrotation Yrotation
            JOINT LeftForeArm
            {
              OFFSET 27.4081 -0.0973053 -0.2375
              CHANNELS 3 Zrotation Xrotation Yrotation
              JOINT LeftHand
              {
                OFFSET 22.8641 0.0662994 -0.1369
                CHANNELS 3 Zrotation Xrotation Yrotation
                JOINT LeftHandIndex1
                {
                  OFFSET 8.8614 0.775009 2.4612
                  CHANNELS 3 Zrotation Xrotation Yrotation
                  JOINT LeftHandIndex2
                  {
                    OFFSET 3.3146 -0.808304 0.5841
                    CHANNELS 3 Zrotation Xrotation Yrotation
                    JOINT LeftHandIndex3
                    {
                      OFFSET 2.2628 -0.552002 0.3989
                      CHANNELS 3 Zrotation Xrotation Yrotation
                      End Site
                      {
                        OFFSET 1.6102 -0.4807 0.2612
                      }
                    }
                  }
                }
                JOINT LeftHandMiddle1
                {
                  OFFSET 8.9937 0.895004 0.2143
                  CHANNELS 3 Zrotation Xrotation Yrotation
                  JOINT LeftHandMiddle2
                  {
                    OFFSET 4.0984 0.0113983 -0.0242
                    CHANNELS 3 Zrotation Xrotation Yrotation
                    JOINT LeftHandMiddle3
                    {
                      OFFSET 2.2716 0.00689697 -0.0138001
                      CHANNELS 3 Zrotation Xrotation Yrotation
                      End Site
                      {
                        OFFSET 2.0404 -0.1441 0.0027
                      }
                    }
                  }
                }
                JOINT LeftHandRing1
                {
                  OFFSET 8.5234 0.597198 -2.0164
                  CHANNELS 3 Zrotation Xrotation Yrotation
                  JOINT LeftHandRing2
                  {
                    OFFSET 3.7188 -0.188293 -0.2328
                    CHANNELS 3 Zrotation Xrotation Yrotation
                    JOINT LeftHandRing3
                    {
                      OFFSET 2.1191 -0.106598 -0.1332
                      CHANNELS 3 Zrotation Xrotation Yrotation
                      End Site
                      {
                        OFFSET 1.8737 -0.2304 -0.0886
                      }
                    }
                  }
                }
                JOINT LeftHandPinky1
                {
                  OFFSET 7.9094 -0.601089 -3.4825
                  CHANNELS 3 Zrotation Xrotation Yrotation
                  JOINT LeftHandPinky2
                  {
                    OFFSET 2.2874 -0.477005 -0.6314
                    CHANNELS 3 Zrotation Xrotation Yrotation
                    JOINT LeftHandPinky3
                    {
                      OFFSET 1.6774 -0.349396 -0.4633
                      CHANNELS 3 Zrotation Xrotation Yrotation
                      End Site
                      {
                        OFFSET 1.4888 -0.4091 -0.3416
                      }
                    }
                  }
                }
                JOINT LeftHandThumb1
                {
                  OFFSET 1.833 -1.3875 1.3896
                  CHANNELS 3 Zrotation Xrotation Yrotation
                  JOINT LeftHandThumb2
                  {
                    OFFSET 3.4129 -1.121 2.5732
                    CHANNELS 3 Zrotation Xrotation Yrotation
                    JOINT LeftHandThumb3
                    {
                      OFFSET 2.2474 -0.804199 1.6192
                      CHANNELS 3 Zrotation Xrotation Yrotation
                      End Site
                      {
                        OFFSET 1.6527 -0.5689 1.1317
                      }
                    }
                  }
                }
              }
            }
          }
        }
        JOINT RightShoulder
        {
          OFFSET -2.2086 21.1115 7.2329
          CHANNELS 3 Zrotation Xrotation Yrotation
          JOINT RightArm
          {
            OFFSET -13.1216 3.0287 -4.9007
            CHANNELS 3 Zrotation Xrotation Yrotation
            JOINT RightForeArm
            {
              OFFSET -27.4081 -0.0973053 -0.2375
              CHANNELS 3 Zrotation Xrotation Yrotation
              JOINT RightHand
              {
                OFFSET -22.8641 0.0664063 -0.1369
                CHANNELS 3 Zrotation Xrotation Yrotation
                JOINT RightHandIndex1
                {
                  OFFSET -8.8614 0.774994 2.4612
                  CHANNELS 3 Zrotation Xrotation Yrotation
                  JOINT RightHandIndex2
                  {
                    OFFSET -3.3146 -0.808304 0.5841
                    CHANNELS 3 Zrotation Xrotation Yrotation
                    JOINT RightHandIndex3
                    {
                      OFFSET -2.2628 -0.552002 0.3989
                      CHANNELS 3 Zrotation Xrotation Yrotation
                      End Site
                      {
                        OFFSET -1.6102 -0.4807 0.2612
                      }
                    }
                  }
                }
                JOINT RightHandMiddle1
                {
                  OFFSET -8.9937 0.894989 0.2143
                  CHANNELS 3 Zrotation Xrotation Yrotation
                  JOINT RightHandMiddle2
                  {
                    OFFSET -4.0984 0.0113983 -0.0242
                    CHANNELS 3 Zrotation Xrotation Yrotation
                    JOINT RightHandMiddle3
                    {
                      OFFSET -2.2716 0.00691223 -0.0138001
                      CHANNELS 3 Zrotation Xrotation Yrotation
                      End Site
                      {
                        OFFSET -2.0404 -0.1441 0.0027
                      }
                    }
                  }
                }
                JOINT RightHandRing1
                {
                  OFFSET -8.5234 0.597198 -2.0164
                  CHANNELS 3 Zrotation Xrotation Yrotation
                  JOINT RightHandRing2
                  {
                    OFFSET -3.7188 -0.188309 -0.2328
                    CHANNELS 3 Zrotation Xrotation Yrotation
                    JOINT RightHandRing3
                    {
                      OFFSET -2.1191 -0.106598 -0.1332
                      CHANNELS 3 Zrotation Xrotation Yrotation
                      End Site
                      {
                        OFFSET -1.8737 -0.2304 -0.0886
                      }
                    }
                  }
                }
                JOINT RightHandPinky1
                {
                  OFFSET -7.9094 -0.601105 -3.4825
                  CHANNELS 3 Zrotation Xrotation Yrotation
                  JOINT RightHandPinky2
                  {
                    OFFSET -2.2874 -0.477005 -0.6314
                    CHANNELS 3 Zrotation Xrotation Yrotation
                    JOINT RightHandPinky3
                    {
                      OFFSET -1.6774 -0.349396 -0.4633
                      CHANNELS 3 Zrotation Xrotation Yrotation
                      End Site
                      {
                        OFFSET -1.4888 -0.4091 -0.3416
                      }
                    }
                  }
                }
                JOINT RightHandThumb1
                {
                  OFFSET -1.833 -1.38751 1.3896
                  CHANNELS 3 Zrotation Xrotation Yrotation
                  JOINT RightHandThumb2
                  {
                    OFFSET -3.41299 -1.12099 2.5732
                    CHANNELS 3 Zrotation Xrotation Yrotation
                    JOINT RightHandThumb3
                    {
                      OFFSET -2.24741 -0.804108 1.6192
                      CHANNELS 3 Zrotation Xrotation Yrotation
                      End Site
                      {
                        OFFSET -1.6527 -0.5689 1.1317
                      }
                    }
                  }
                }
              }
            }
          }
        }
      }
    }
  }
  JOINT RightUpLeg
  {
    OFFSET -9.1966 3.8861 -0.7581
    CHANNELS 3 Zrotation Xrotation Yrotation
    JOINT RightLeg
    {
      OFFSET -0.7359 -41.0265 0
      CHANNELS 3 Zrotation Xrotation Yrotation
      JOINT RightFoot
      {
        OFFSET 0 -40.2855 0
        CHANNELS 3 Zrotation Xrotation Yrotation
        JOINT RightToeBase
        {
          OFFSET 0 -5.6122 11.7359
          CHANNELS 3 Zrotation Xrotation Yrotation
          End Site
          {
            OFFSET 0 0 7.8731
          }
        }
      }
    }
  }
  JOINT LeftUpLeg
  {
    OFFSET 9.1965 3.8864 -0.7581
    CHANNELS 3 Zrotation Xrotation Yrotation
    JOINT LeftLeg
    {
      OFFSET 0.7359 -41.0268 0
      CHANNELS 3 Zrotation Xrotation Yrotation
      JOINT LeftFoot
      {
        OFFSET 0 -40.2855 0
        CHANNELS 3 Zrotation Xrotation Yrotation
        JOINT LeftToeBase
        {
          OFFSET 0 -5.6122 11.7359
          CHANNELS 3 Zrotation Xrotation Yrotation
          End Site
          {
            OFFSET 0 0 7.8731
          }
        }
      }
    }
  }
}
MOTION
Frames:	4
Frame Time:	0.0333333
5.84602e-005 68.8428 3.50346 0 0 -0 0 0 -0 0 0 -0 0 0 -0 0 0 -0 0 0 -0 0 0 -0 0 0 -0 0 0 -0 0 0 -0 0 0 -0 0 0 -0 0 0 -0 0 0 -0 -0.0146107 -8.87603e-005 -2.63497e-007 2.99804e-018 -2.42657e-020 -1.42182e-022 0 0 -0 -0.0187562 -0.001176 5.858e-005 5.06224e-018 3.88251e-019 1.21329e-020 0 0 -0 -0.012269 -0.00324817 0.000675346 -1.74678e-018 3.88251e-019 -0 0 0 -0 0 0 -0 0 0 -0 0 0 -0 0 0 -0 0 0 -0 0 0 -0 0 0 -0 0 0 -0 0 0 -0 0 0 -0 0.0149955 -9.10982e-005 2.64101e-007 -9.69331e-018 1.21329e-020 -4.7394e-023 0 0 -0 0.0189956 -0.00119102 -5.96516e-005 -5.41541e-019 0 2.42657e-020 0 0 -0 0.0122698 -0.00324857 -0.000673756 -2.00796e-019 0 -1.94126e-019 0 0 -0 0 0 -0 0 0 -0 3.39842 1.33031 -0.0637918 -5.65207e-008 0.834868 -0.000436188 -3.39935 -2.16518 -0.0642563 -8.89002e-024 -1.18485e-023 -1.48106e-024 -3.39844 1.35642 0.0640283 -3.18788e-007 0.782166 -0.000588827 3.39931 -2.13858 0.0634662 1.1399e-023 0 -0 
-0.122084 1.05951 7.62722 -180 -89.9981 -180 -0.00630841 5.23578 -0.103316 -0.00310913 10.4716 -0.207358 -0.00310913 10.4715 -0.207358 -8.1894e-007 17.9983 7.10961e-007 2.63381e-008 8.99856 -1.90845e-008 1.24442 0.57967 10.4952 -73.621 -7.2475 -11.8417 -4.76077 -8.61866 -69.6366 -49.907 -26.0015 0.22007 -1.02662e-006 -3.43508e-006 5.73428e-007 -6.9735e-007 -5.03738e-006 3.66554e-006 -1.6914e-006 1.64836e-006 -2.14542e-006 -1.02662e-006 -3.43508e-006 5.73428e-007 -0.0146036 -9.01134e-005 6.75046e-006 -3.38985e-007 -4.58113e-007 -6.2973e-007 -1.02662e-006 -3.43508e-006 5.73428e-007 -0.0187483 -0.00118183 6.78899e-005 -3.38994e-007 -4.58091e-007 -6.29744e-007 -1.02662e-006 -3.43508e-006 5.73428e-007 -0.0122853 -0.00326169 0.000685772 -3.39003e-007 -4.58126e-007 -6.29711e-007 -1.02662e-006 -3.43508e-006 5.73428e-007 -6.9735e-007 -5.03738e-006 3.66554e-006 -1.6914e-006 1.64836e-006 -2.14542e-006 -6.61461 0.306464 5.82985 70.4444 -7.63452 28.7031 4.04093 -12.8324 76.6759 72.957 -11.8026 -0.203617 -1.59028e-015 0 -0 7.95139e-016 1.59028e-015 -3.18055e-015 -3.18055e-015 1.59028e-015 -0 -1.59028e-015 0 -0 0.0149568 -9.09456e-005 4.66414e-007 -3.97569e-015 3.18055e-015 9.54166e-015 -1.59028e-015 0 -0 0.0190333 -0.00119324 -5.91983e-005 7.95139e-016 -1.59028e-015 -6.36111e-015 -1.59028e-015 0 -0 0.0123492 -0.00326911 -0.00068011 -5.29669e-031 9.54166e-015 3.18055e-015 -1.59028e-015 0 -0 7.95139e-016 1.59028e-015 -3.18055e-015 -3.18055e-015 1.59028e-015 -0 -167.816 -37.9834 -174.143 3.51201 43.7216 -4.20468 -8.9339 14.9501 0.239104 -5.71734e-008 -7.40661e-008 8.44256e-007 147.144 -42.7042 158.765 -1.99008 9.08731 0.985534 9.14089 12.1716 0.68943 5.11488e-006 2.33287e-006 -5.69003e-006 
-0.119399 1.06004 7.62868 -180 -89.9981 -180 -0.00761609 5.35801 -0.103065 -0.00553824 10.716 -0.206778 -0.00553814 10.716 -0.206778 2.54562e-007 17.7291 1.84993e-007 5.07966e-008 8.56328 -6.60321e-008 1.81144 0.370821 10.3968 -73.8213 -7.18108 -11.8698 -4.71632 -8.71093 -70.2719 -49.7328 -26.1682 -0.237366 -1.01716e-006 -3.44407e-006 5.76914e-007 -1.35121e-006 -3.90385e-006 -5.42078e-008 3.18055e-015 -1.59028e-014 6.36111e-015 -1.01716e-006 -3.44407e-006 5.76914e-007 -0.0146286 -9.24976e-005 1.73425e-006 7.06225e-031 -6.36111e-015 6.36111e-015 -1.01716e-006 -3.44407e-006 5.76914e-007 -0.0187431 -0.00117545 5.83323e-005 3.18055e-015 -6.36111e-015 -9.54166e-015 -1.01716e-006 -3.44407e-006 5.76914e-007 -0.0122621 -0.00324778 0.00067614 9.54166e-015 -3.18055e-015 3.18055e-015 -1.01716e-006 -3.44407e-006 5.76914e-007 -1.35121e-006 -3.90385e-006 -5.42078e-008 3.18055e-015 -1.59028e-014 6.36111e-015 -7.2095 -0.163393 5.58641 70.6717 -7.46641 28.7301 4.06775 -12.7183 77.0163 72.6739 -11.8314 0.130593 -3.18055e-015 -3.18055e-015 -0 -3.97569e-015 3.18055e-015 3.18055e-015 -3.18055e-015 -3.18055e-015 6.36111e-015 -3.18055e-015 -3.18055e-015 -0 0.0149757 -9.12156e-005 1.8217e-006 1.59028e-015 -3.18055e-015 3.18055e-015 -3.18055e-015 -3.18055e-015 -0 0.0189899 -0.00119171 -5.59443e-005 -4.63922e-007 -1.54855e-008 5.68792e-007 -3.18055e-015 -3.18055e-015 -0 0.0122392 -0.00324048 -0.000675264 7.95139e-016 6.36111e-015 -3.18055e-015 -3.18055e-015 -3.18055e-015 -0 -3.97569e-015 3.18055e-015 3.18055e-015 -3.18055e-015 -3.18055e-015 6.36111e-015 -167.815 -37.9809 -174.128 3.37341 43.2788 -4.10145 -8.93078 14.9541 0.239013 5.39e-008 7.48891e-008 -8.44378e-007 147.29 -43.0115 158.719 -2.11867 8.66489 0.993112 9.15011 12.5051 0.64795 -1.0118e-006 9.95366e-007 3.54034e-006 
-0.116716 1.06057 7.63013 -180 -89.9981 -180 -0.0089733 5.48036 -0.102752 -0.00807595 10.9607 -0.206062 -0.00807589 10.9607 -0.206062 1.52972e-006 17.46 -1.02194e-006 -1.27326e-007 8.12765 1.58395e-007 2.37827 0.161028 10.3003 -74.0215 -7.11456 -11.8977 -4.67287 -8.80372 -70.9076 -49.5598 -26.3361 -0.695031 3.18055e-015 0 3.18055e-015 6.36111e-015 6.36111e-015 -6.36111e-015 6.36111e-015 9.54166e-015 -3.18055e-015 3.18055e-015 0 3.18055e-015 -0.0146239 -8.95328e-005 -3.59691e-006 3.18055e-015 -3.18055e-015 -6.36111e-015 3.18055e-015 0 3.18055e-015 -0.0187249 -0.00117525 5.86185e-005 0 3.18055e-015 -0 3.18055e-015 0 3.18055e-015 -0.0122902 -0.00325698 0.00067943 1.33186e-006 -2.20333e-006 1.62341e-006 3.18055e-015 0 3.18055e-015 6.36111e-015 6.36111e-015 -6.36111e-015 6.36111e-015 9.54166e-015 -3.18055e-015 -7.80672 -0.630888 5.33797 70.8988 -7.29821 28.7564 4.09385 -12.6041 77.3567 72.391 -11.8618 0.464753 -1.63635e-006 -2.63115e-007 2.20331e-007 1.85668e-006 -8.37322e-008 1.41602e-006 -1.63635e-006 -2.63115e-007 2.20331e-007 -1.63635e-006 -2.63115e-007 2.20331e-007 0.0150316 -8.82249e-005 5.8909e-006 -1.63639e-006 -2.63085e-007 2.20366e-007 -1.63635e-006 -2.63115e-007 2.20331e-007 0.0189849 -0.00119052 -5.58043e-005 -2.0939e-006 -3.15921e-007 7.82794e-007 -1.63635e-006 -2.63115e-007 2.20331e-007 0.0123028 -0.00325471 -0.000674874 -1.63638e-006 -2.63091e-007 2.20407e-007 -1.63635e-006 -2.63115e-007 2.20331e-007 1.85668e-006 -8.37322e-008 1.41602e-006 -1.63635e-006 -2.63115e-007 2.20331e-007 -167.814 -37.9785 -174.113 3.23655 42.8354 -4.00026 -8.92759 14.9582 0.238921 -5.06251e-008 -7.57112e-008 8.44488e-007 147.436 -43.3204 158.674 -2.24704 8.23924 0.999623 9.1597 12.8401 0.606218 9.60468e-008 2.59253e-007 -2.3592e-006 
